<?xml version="1.0" encoding="UTF-8"?>
<svg version="1.1" xmlns="http://www.w3.org/2000/svg" width="1024" height="1024">
<path d="M0 0 C4.51628984 6.27262477 4.64152995 12.43974652 4.87109375 19.91479492 C4.90883408 20.97061107 4.9465744 22.02642721 4.98545837 23.11423779 C5.33349068 33.78975635 5.36597532 44.46215104 5.32516479 55.14226723 C5.31209257 58.59592422 5.30581078 62.0495417 5.30102539 65.5032196 C5.2897632 72.81466461 5.27047816 80.12607577 5.25 87.4375 C5.2262669 95.96913099 5.20596542 104.50074377 5.19406128 113.03240013 C5.18763889 116.41512477 5.17514444 119.79779059 5.16235352 123.18049622 C5.15871938 125.26526846 5.15536785 127.35004123 5.15234375 129.43481445 C5.14717743 130.35809036 5.14201111 131.28136627 5.13668823 132.23262024 C5.13624289 137.79656495 5.46461602 143.25071464 6.04650879 148.78482342 C6.28663452 151.54630196 6.14986931 154.12606489 5.8125 156.875 C5.33308865 161.63175674 5.13370354 166.34617482 5.125 171.125 C5.12113281 172.98125 5.12113281 172.98125 5.1171875 174.875 C5.11624757 177.92178012 5.11624757 177.92178012 5.76806641 179.96704102 C6.37804169 182.69833357 6.24055038 185.10760932 6.09375 187.90234375 C6.04025391 189.04630615 5.98675781 190.19026855 5.93164062 191.36889648 C5.87169922 192.58778564 5.81175781 193.8066748 5.75 195.0625 C5.31425124 204.97770665 5.23340362 214.73641337 5.93164062 224.63842773 C5.98513672 225.42677002 6.03863281 226.2151123 6.09375 227.02734375 C6.14724609 227.70273193 6.20074219 228.37812012 6.25585938 229.07397461 C6.25 231.125 6.25 231.125 5.75772095 233.45202637 C5.26906343 236.02463768 5.12316691 238.33004361 5.12060547 240.94360352 C5.11745331 241.87129044 5.11430115 242.79897736 5.11105347 243.754776 C5.1130777 244.74448898 5.11510193 245.73420197 5.1171875 246.75390625 C5.11623077 247.78055893 5.11527405 248.80721161 5.11428833 249.86497498 C5.11360903 252.03099631 5.11544585 254.19701971 5.11962891 256.36303711 C5.12498614 259.67892013 5.11967259 262.99466803 5.11328125 266.31054688 C5.11394197 268.41666697 5.115223 270.52278697 5.1171875 272.62890625 C5.11415115 274.11651207 5.11415115 274.11651207 5.11105347 275.63417053 C5.11420563 276.55870529 5.11735779 277.48324005 5.12060547 278.43579102 C5.12140106 279.2467775 5.12219666 280.05776398 5.12301636 280.89332581 C5.15888274 283.09193883 5.15888274 283.09193883 5.82058716 284.98057556 C6.25 287.125 6.25 287.125 5.78351307 290.23439026 C5.21822801 294.3566952 5.11965816 298.36997922 5.14320374 302.5191803 C5.1440388 303.74686737 5.1440388 303.74686737 5.14489073 304.99935621 C5.1479141 307.72754751 5.15808914 310.45566442 5.16821289 313.18383789 C5.171771 315.14555281 5.17485644 317.10726863 5.17750549 319.06898499 C5.18404587 323.28630207 5.19359834 327.5035978 5.20540047 331.7209034 C5.22371484 338.38948732 5.23329768 345.0580661 5.24131775 351.72666931 C5.2654542 370.68702454 5.30138206 389.6473482 5.34594727 408.60766602 C5.37049566 419.08463004 5.38785676 429.56158177 5.39750665 440.03857034 C5.40404894 446.66788638 5.41960601 453.29710108 5.44182408 459.92638218 C5.45355289 464.04896422 5.45692139 468.1715216 5.45792198 472.29411888 C5.46006959 474.20571732 5.46566173 476.11731545 5.4749527 478.02889252 C5.4871462 480.63861581 5.4869851 483.24806009 5.48377991 485.85780334 C5.49028771 486.61374112 5.49679551 487.36967889 5.50350052 488.14852387 C5.48261747 492.51891598 4.86223323 496.06197504 3.25 500.125 C2.62996094 499.7846875 2.00992187 499.444375 1.37109375 499.09375 C-0.54868736 498.04304011 -2.47083559 496.99665066 -4.39453125 495.953125 C-6.60745211 494.74748244 -8.81341931 493.52897576 -11.01171875 492.296875 C-28.42908798 482.70074324 -46.84142817 475.22502697 -65.75 469.125 C-66.96502197 468.73103027 -66.96502197 468.73103027 -68.20458984 468.32910156 C-77.95471973 465.20210252 -87.76972486 462.53998901 -97.75 460.25 C-98.68827637 460.03456543 -99.62655273 459.81913086 -100.59326172 459.59716797 C-104.47123878 458.73689995 -107.74738131 458.125 -111.75 458.125 C-111.75 457.465 -111.75 456.805 -111.75 456.125 C-113.73 456.455 -115.71 456.785 -117.75 457.125 C-117.75 456.465 -117.75 455.805 -117.75 455.125 C-118.28625 455.33125 -118.8225 455.5375 -119.375 455.75 C-121.75 456.125 -121.75 456.125 -124.2890625 455.2578125 C-127.82360421 454.10090833 -131.22879188 453.46003281 -134.88378906 452.83154297 C-151.4325625 449.94369243 -151.4325625 449.94369243 -157.75 444.125 C-157.75 443.465 -157.75 442.805 -157.75 442.125 C-158.41 442.125 -159.07 442.125 -159.75 442.125 C-160.34748047 440.91263672 -160.34748047 440.91263672 -160.95703125 439.67578125 C-161.48683594 438.60714844 -162.01664063 437.53851562 -162.5625 436.4375 C-163.08457031 435.38175781 -163.60664062 434.32601563 -164.14453125 433.23828125 C-165.69289768 430.14130338 -165.69289768 430.14130338 -167.44921875 427.35546875 C-168.75 425.125 -168.75 425.125 -168.75 423.125 C-169.41 423.125 -170.07 423.125 -170.75 423.125 C-171.2303318 421.54201974 -171.70921612 419.95860022 -172.1875 418.375 C-172.58775391 417.05242187 -172.58775391 417.05242187 -172.99609375 415.703125 C-173.63468494 413.51934165 -174.21775833 411.33664502 -174.75 409.125 C-175.41 409.125 -176.07 409.125 -176.75 409.125 C-176.84410156 408.49722656 -176.93820312 407.86945313 -177.03515625 407.22265625 C-178.04230261 402.85835535 -179.62039588 398.75314707 -181.1875 394.5625 C-181.50009766 393.71236328 -181.81269531 392.86222656 -182.13476562 391.98632812 C-183.78269887 387.47714706 -183.78269887 387.47714706 -185.77514648 383.11572266 C-186.78037501 381.062972 -187.4259829 379.1022322 -188.0390625 376.90234375 C-188.25820313 376.11666016 -188.47734375 375.33097656 -188.703125 374.52148438 C-188.92484375 373.71001953 -189.1465625 372.89855469 -189.375 372.0625 C-189.60445312 371.24716797 -189.83390625 370.43183594 -190.0703125 369.59179688 C-191.75 363.50792876 -191.75 363.50792876 -191.75 360.125 C-192.41 359.795 -193.07 359.465 -193.75 359.125 C-194.46237152 356.78758445 -195.05612473 354.50293525 -195.59765625 352.125 C-195.94851429 350.6560426 -196.30026863 349.18729904 -196.65283203 347.71875 C-196.83324036 346.95820313 -197.01364868 346.19765625 -197.19952393 345.4140625 C-198.58043095 339.67179206 -200.10018801 333.96446836 -201.62231445 328.25830078 C-202.00253567 326.82315047 -202.37744705 325.38658397 -202.74731445 323.94873047 C-205.55248977 311.01605086 -205.55248977 311.01605086 -213.39794922 300.95678711 C-216.2825355 299.51528103 -218.73383943 299.125 -221.9375 299.125 C-226.31492044 300.68141616 -228.11450365 303.80457851 -230.0871582 307.90332031 C-233.04296351 315.73448042 -235.36179977 323.63828203 -237.40084839 331.74902344 C-243.9905705 357.85459073 -251.52919587 383.55550365 -261.68945312 408.51660156 C-262.59824766 410.7517675 -263.48372144 412.99391855 -264.359375 415.2421875 C-275.47438692 442.77994174 -275.47438692 442.77994174 -286.75 449.125 C-292.98606246 451.69546591 -299.17266222 453.23890312 -305.765625 454.61328125 C-307.92710052 455.07739395 -310.08855826 455.54158943 -312.25 456.00585938 C-315.60558112 456.71896902 -318.96170268 457.42942184 -322.31835938 458.13745117 C-336.69031128 461.17923001 -350.76823944 464.60586197 -364.75 469.125 C-365.95946289 469.51163818 -367.16892578 469.89827637 -368.41503906 470.29663086 C-382.94787898 475.03357338 -396.98737923 480.47766617 -410.75 487.125 C-411.46865234 487.46917969 -412.18730469 487.81335938 -412.92773438 488.16796875 C-421.4819132 492.28343543 -429.73562889 496.74421747 -437.859375 501.65625 C-440.75 503.125 -440.75 503.125 -444.75 503.125 C-445.49782422 417.18549393 -445.82508335 331.24613288 -445.87283063 204.99353421 C-445.8739842 194.78230803 -445.87717788 184.57108429 -445.88157158 174.35985903 C-445.88772142 159.95841821 -445.889788 145.55698441 -445.88556135 131.15554267 C-445.88514312 129.70361285 -445.88472908 128.25168302 -445.88431931 126.79975319 C-445.8841172 126.0874469 -445.8839151 125.37514062 -445.88370688 124.6412493 C-445.88255769 119.77065972 -445.88380799 114.90007472 -445.88615799 110.0294857 C-445.8971394 84.7141851 -445.88245863 59.39678643 -445.4775846 34.08411562 C-445.44581781 32.01263644 -445.41856149 29.94108218 -445.39625382 27.86947954 C-445.36405185 25.04245043 -445.31323514 22.21636568 -445.25704956 19.38972473 C-445.25107655 18.57743318 -445.24510355 17.76514162 -445.23894954 16.92823517 C-445.06468438 10.01045628 -443.86542627 3.62011817 -439.3125 -1.75 C-438.466875 -2.45125 -437.62125 -3.1525 -436.75 -3.875 C-436.14042639 -4.38964908 -435.53085278 -4.90429815 -434.90280724 -5.43454266 C-428.05529507 -10.01625765 -417.7923952 -9.16058852 -409.86865234 -9.11791992 C-408.73723816 -9.11981827 -407.60582397 -9.12171661 -406.44012451 -9.12367249 C-402.73865607 -9.12734698 -399.03738818 -9.11672901 -395.3359375 -9.10546875 C-392.75330631 -9.10427563 -390.17067467 -9.10382407 -387.58804321 -9.1040802 C-382.19684906 -9.10252144 -376.80572637 -9.09451985 -371.41455078 -9.08081055 C-365.17784598 -9.06501003 -358.94120294 -9.05981542 -352.70447958 -9.0605461 C-346.69286527 -9.06115528 -340.68127615 -9.05595589 -334.66966629 -9.04775429 C-332.11385851 -9.04456394 -329.5580489 -9.04259936 -327.00223923 -9.04186058 C-323.44726153 -9.03970571 -319.89236315 -9.03098262 -316.33740234 -9.02026367 C-315.27359344 -9.02071686 -314.20978455 -9.02117004 -313.11373901 -9.02163696 C-312.15221924 -9.01737198 -311.19069946 -9.01310699 -310.20004272 -9.00871277 C-309.35982763 -9.00703692 -308.51961254 -9.00536108 -307.65393639 -9.00363445 C-305.75 -8.875 -305.75 -8.875 -304.75 -7.875 C-304.6521848 -5.23214747 -304.62005733 -2.61544247 -304.62974548 0.02784729 C-304.62846385 1.28482128 -304.62846385 1.28482128 -304.62715632 2.56718868 C-304.62549894 5.39710859 -304.63102707 8.22697024 -304.63647461 11.05688477 C-304.63675645 13.076711 -304.63659881 15.09653735 -304.6360321 17.11636353 C-304.63574401 22.61820386 -304.64164259 28.12002259 -304.64860606 33.62185788 C-304.6548377 39.36476105 -304.65544325 45.10766465 -304.65663147 50.85057068 C-304.65974535 61.73386893 -304.66795949 72.61715719 -304.67798096 83.50045103 C-304.68914035 95.88717796 -304.69465211 108.27390536 -304.69967639 120.66063607 C-304.71014206 146.14876293 -304.72774259 171.6368809 -304.75 197.125 C-283.32302775 197.14835332 -261.8960576 197.16599116 -240.4690752 197.17681217 C-230.52031339 197.18196995 -220.57155948 197.1890028 -210.62280273 197.20043945 C-201.9521618 197.21040209 -193.28152658 197.2168572 -184.61088008 197.21908849 C-180.0192387 197.22039291 -175.42761369 197.2234618 -170.83597755 197.23073006 C-166.51457113 197.23751517 -162.19318783 197.23961187 -157.87177658 197.23810768 C-156.28550656 197.23838289 -154.69923577 197.24037324 -153.11297035 197.24420547 C-150.94705536 197.2491816 -148.78122768 197.2479838 -146.61531067 197.24525452 C-144.79707401 197.24663721 -144.79707401 197.24663721 -142.94210529 197.24804783 C-140.08389879 197.13787098 -137.52625375 196.78521965 -134.75 196.125 C-134.75138269 194.64820408 -134.75138269 194.64820408 -134.75279331 193.14157391 C-134.77501412 169.16195428 -134.79143586 145.182336 -134.80181217 121.20270824 C-134.80696373 109.60624513 -134.81398468 98.00978882 -134.82543945 86.41333008 C-134.83542115 76.30333127 -134.84186173 66.19333739 -134.84408849 56.08333379 C-134.84538968 50.73249756 -134.84843802 45.38167544 -134.85573006 40.03084373 C-134.86254528 34.98877829 -134.8646058 29.9467327 -134.86310768 24.90466309 C-134.86338154 23.0596792 -134.86535389 21.21469462 -134.86920547 19.36971474 C-134.90973335 -1.05522299 -134.90973335 -1.05522299 -133.75 -7.875 C-132.1769941 -9.4480059 -130.60019834 -9.02574806 -128.41384888 -9.05340576 C-127.47757156 -9.06753006 -126.54129425 -9.08165436 -125.5766449 -9.09620667 C-124.02300987 -9.11190956 -124.02300987 -9.11190956 -122.43798828 -9.12792969 C-121.353358 -9.14264816 -120.26872772 -9.15736664 -119.15122986 -9.17253113 C-115.54096879 -9.21966073 -111.93068099 -9.25891163 -108.3203125 -9.296875 C-107.08827969 -9.31073494 -105.85624687 -9.32459488 -104.58687973 -9.33887482 C-98.73229144 -9.40468848 -92.87768689 -9.46686776 -87.02299798 -9.52305388 C-80.28145033 -9.58779208 -73.54023522 -9.66584453 -66.79897702 -9.75573611 C-60.94985675 -9.83281365 -55.10065447 -9.89262642 -49.25127792 -9.94638824 C-46.77066172 -9.97156026 -44.29009207 -10.00188723 -41.80960464 -10.03755951 C-38.32502244 -10.08631398 -34.84078388 -10.11527323 -31.35595703 -10.13964844 C-30.34044266 -10.15821396 -29.32492828 -10.17677948 -28.27864075 -10.19590759 C-17.31093476 -10.22826003 -7.77351926 -8.12686105 0 0 Z " fill="#E7E7EE" transform="translate(730.75,155.875)"/>
<path d="M0 0 C0.66 0 1.32 0 2 0 C2.17015625 0.7621582 2.3403125 1.52431641 2.515625 2.30957031 C10.33231861 37.10009359 19.30344871 71.8248382 35 104 C35.34998047 104.72977051 35.69996094 105.45954102 36.06054688 106.21142578 C47.06313538 128.94908425 63.3028275 152.70621894 87.5625 162.4375 C94.70453947 164.79783213 101.92946033 165.20389078 108.97265625 162.265625 C113.27110013 159.58220339 116.61967297 155.73244443 120 152 C122 153 122 153 123 155.8515625 C131.30430888 187.18735302 129.36585401 217.54612671 113.39453125 246.046875 C110.17250073 251.5344162 106.25171413 256.28265829 102 261 C101.35417969 261.77601563 100.70835937 262.55203125 100.04296875 263.3515625 C94.96276225 269.3733144 89.19421922 274.16101536 83 279 C81.91465444 279.86238826 80.83004062 280.72569811 79.74609375 281.58984375 C72.82558839 287.08823203 65.79346919 292.42450959 58.70947266 297.70996094 C49.63443588 304.24775156 49.63443588 304.24775156 41.36328125 311.71484375 C40 313 40 313 38 313 C38 313.66 38 314.32 38 315 C36.85984026 316.17471004 35.71357427 317.34390779 34.54296875 318.48828125 C22.19476091 330.58639881 12.80962761 347.50201714 11.83203125 365.0078125 C11.78482529 372.54188348 12.50986252 379.61583661 14 387 C14.66 387 15.32 387 16 387 C15.67 387.99 15.34 388.98 15 390 C-8.07014616 380.52675158 -23.32057316 363.82525164 -33 341 C-40.1451923 322.25712167 -40.68758353 302.56500685 -36.97973633 283.02514648 C-35.55053998 275.07881477 -35.41606773 266.96078604 -40 260 C-42.79705617 256.99575448 -45.79109832 256.2997719 -49.8515625 255.9375 C-55.38701184 256.09853125 -60.56106154 258.65134338 -64.6171875 262.375 C-70.41882589 269.19274455 -72.41853861 277.17581103 -72 286 C-70.99055192 291.49843309 -69.22484662 296.39307625 -66 301 C-66.66 301.33 -67.32 301.66 -68 302 C-68.61875 301.33677734 -68.61875 301.33677734 -69.25 300.66015625 C-71.06436497 298.93893948 -72.87292565 297.74737115 -75 296.4375 C-84.94772689 289.88104364 -92.83137811 281.43959752 -100 272 C-100.59296875 271.23429687 -101.1859375 270.46859375 -101.796875 269.6796875 C-121.37603783 243.1849488 -128.66784104 209.37728589 -124.43359375 176.87109375 C-123.16829668 168.86735416 -121.64398307 160.28796614 -118 153 C-117.34 153 -116.68 153 -116 153 C-115.5875 153.721875 -115.175 154.44375 -114.75 155.1875 C-111.65143784 160.16733204 -107.52057699 163.18370627 -102 165 C-88.90754714 166.88945999 -79.34564722 162.18621682 -69.0625 154.5 C-67.6901916 153.35472792 -66.33445067 152.18916773 -65 151 C-64.4225 150.49210938 -63.845 149.98421875 -63.25 149.4609375 C-23.72460867 112.31438917 -11.55628994 50.57087353 0 0 Z " fill="#4483FE" transform="translate(511,480)"/>
<path d="M0 0 C0.33 0 0.66 0 1 0 C1.9765625 6.0546875 1.9765625 6.0546875 2 8 C1.34 8.66 0.68 9.32 0 10 C-0.79544282 11.95347266 -1.51614689 13.93798263 -2.1875 15.9375 C-2.55230469 16.99839844 -2.91710937 18.05929687 -3.29296875 19.15234375 C-4.28164335 22.04759115 -4.28164335 22.04759115 -3 25 C-4.30208796 27.02048131 -5.63988391 29.01811655 -7 31 C-7.66915474 32.99916892 -8.33554858 34.99926295 -9 37 C-10.49060535 40.03656474 -12.0702067 43.01447125 -13.66015625 46 C-15.02126561 49.04761514 -15.50958372 51.71798337 -16 55 C-16.97850195 56.02104551 -17.97980427 57.0206121 -19 58 C-19.70626239 59.98636298 -20.36893571 61.98848259 -21 64 C-22.92793134 68.53063865 -25.38915637 71.80916174 -28.6953125 75.38671875 C-30.22206402 77.08174757 -30.22206402 77.08174757 -31 80 C-31.99 80.495 -31.99 80.495 -33 81 C-32.67 81.66 -32.34 82.32 -32 83 C-34.64 84.98 -37.28 86.96 -40 89 C-38.54523347 86.09046694 -37.10873886 83.52743929 -35.34765625 80.82421875 C-19.13406716 55.57093014 -8.50968141 28.69344836 0 0 Z " fill="#4E5CEF" transform="translate(499,529)"/>
<path d="M0 0 C0.66 0 1.32 0 2 0 C2.6986179 2.91440599 3.3842031 5.83086087 4.0625 8.75 C4.26166016 9.575 4.46082031 10.4 4.66601562 11.25 C4.84970703 12.04921875 5.03339844 12.8484375 5.22265625 13.671875 C5.48187866 14.77160645 5.48187866 14.77160645 5.74633789 15.89355469 C6.02424428 18.20132783 5.69809241 19.79916037 5 22 C5 21.34 5 20.68 5 20 C4.34 19.67 3.68 19.34 3 19 C2.26924352 16.6859378 1.59861742 14.35171131 1 12 C-1.27309882 18.59198657 -3.20968433 25.2308844 -5.03515625 31.9609375 C-6 35 -6 35 -8 38 C-7.26854384 30.00549326 -5.29725079 22.29027925 -3.4375 14.5 C-3.10443407 13.09123648 -2.7717485 11.68238298 -2.43945312 10.2734375 C-1.63068782 6.84790907 -0.8167711 3.42362954 0 0 Z " fill="#5157E2" transform="translate(511,480)"/>
<path d="M0 0 C2.72268543 4.08402815 4.55932148 8.46594985 6.5625 12.9375 C6.97435547 13.84435547 7.38621094 14.75121094 7.81054688 15.68554688 C8.20435547 16.56146484 8.59816406 17.43738281 9.00390625 18.33984375 C9.36299072 19.13769287 9.7220752 19.93554199 10.09204102 20.75756836 C10.93101275 22.82961874 11.5212528 24.81994036 12 27 C10 25.1875 10 25.1875 8 23 C8 22.01 8 21.02 8 20 C7.34 20 6.68 20 6 20 C5.34 17.03 4.68 14.06 4 11 C3.01 11 2.02 11 1 11 C0.67 7.37 0.34 3.74 0 0 Z " fill="#4E5BEF" transform="translate(535,561)"/>
<path d="M0 0 C0.66 0 1.32 0 2 0 C2.50471197 1.76949612 3.00360685 3.54065223 3.5 5.3125 C3.7784375 6.29863281 4.056875 7.28476562 4.34375 8.30078125 C5 11 5 11 5 14 C5.66 14 6.32 14 7 14 C6.67 14.99 6.34 15.98 6 17 C4.68 16.34 3.36 15.68 2 15 C2.33 14.01 2.66 13.02 3 12 C2.67 11.01 2.34 10.02 2 9 C1 6 1 6 2 3 C1.34 3 0.68 3 0 3 C0 2.01 0 1.02 0 0 Z " fill="#5AC7FA" transform="translate(520,853)"/>
<path d="M0 0 C0.66 0 1.32 0 2 0 C2.65234375 1.734375 2.65234375 1.734375 3 4 C2.00390625 6.140625 2.00390625 6.140625 0.5625 8.25 C0.08941406 8.95640625 -0.38367188 9.6628125 -0.87109375 10.390625 C-1.24363281 10.92171875 -1.61617188 11.4528125 -2 12 C-3.12377697 8.69564916 -2.89554742 6.9493138 -1.5625 3.75 C-1.27503906 3.04359375 -0.98757813 2.3371875 -0.69140625 1.609375 C-0.46324219 1.07828125 -0.23507812 0.5471875 0 0 Z " fill="#5269EE" transform="translate(393,633)"/>
<path d="M0 0 C0 4.38968456 -2.12805101 5.76905739 -5 9 C-5.66 8.67 -6.32 8.34 -7 8 C-4.69 5.36 -2.38 2.72 0 0 Z M-10 11 C-10 11.99 -10 12.98 -10 14 C-11.98 14.99 -11.98 14.99 -14 16 C-12.68 14.35 -11.36 12.7 -10 11 Z " fill="#4F63F1" transform="translate(458,618)"/>
<path d="M0 0 C0.33 0.66 0.66 1.32 1 2 C1.66 2 2.32 2 3 2 C3.33 4.97 3.66 7.94 4 11 C3.67 10.34 3.34 9.68 3 9 C2.34 8.67 1.68 8.34 1 8 C0.40644386 5.35139573 0.25790731 2.70802678 0 0 Z " fill="#4F59E7" transform="translate(513,491)"/>
<path d="M0 0 C0.66 0.33 1.32 0.66 2 1 C2 1.99 2 2.98 2 4 C0.35 4.66 -1.3 5.32 -3 6 C-3 3 -3 3 -1.5 1.3125 C-0.7575 0.6628125 -0.7575 0.6628125 0 0 Z " fill="#4D62E7" transform="translate(631,632)"/>
<path d="M0 0 C2.72426311 2.35277269 3.8141763 4.62496331 5 8 C3.68 8 2.36 8 1 8 C0.67 5.36 0.34 2.72 0 0 Z " fill="#4B5CEE" transform="translate(551,596)"/>
<path d="" fill="#D4D4FF" transform="translate(0,0)"/>
<path d="" fill="#BFBFFF" transform="translate(0,0)"/>
<path d="" fill="#FFFFFF" transform="translate(0,0)"/>
<path d="" fill="#66CCFF" transform="translate(0,0)"/>
<path d="" fill="#FFFFFF" transform="translate(0,0)"/>
<path d="" fill="#FFFFFF" transform="translate(0,0)"/>
<path d="" fill="#FFFFFF" transform="translate(0,0)"/>
<path d="" fill="#80FFFF" transform="translate(0,0)"/>
<path d="" fill="#FFFFFF" transform="translate(0,0)"/>
<path d="" fill="#FFFFFF" transform="translate(0,0)"/>
<path d="" fill="#FFFFFF" transform="translate(0,0)"/>
<path d="" fill="#FFFFFF" transform="translate(0,0)"/>
<path d="" fill="#FFFFFF" transform="translate(0,0)"/>
<path d="" fill="#80FFFF" transform="translate(0,0)"/>
<path d="" fill="#80FFFF" transform="translate(0,0)"/>
<path d="" fill="#FFFFFF" transform="translate(0,0)"/>
<path d="" fill="#FFFFFF" transform="translate(0,0)"/>
<path d="" fill="#FFFFFF" transform="translate(0,0)"/>
<path d="" fill="#FFFFFF" transform="translate(0,0)"/>
<path d="" fill="#FFFFFF" transform="translate(0,0)"/>
<path d="" fill="#FFFFFF" transform="translate(0,0)"/>
<path d="" fill="#FFFFFF" transform="translate(0,0)"/>
<path d="" fill="#FFFFFF" transform="translate(0,0)"/>
<path d="" fill="#FFFFFF" transform="translate(0,0)"/>
<path d="" fill="#55AAFF" transform="translate(0,0)"/>
<path d="" fill="#FFFFFF" transform="translate(0,0)"/>
<path d="" fill="#FFFFFF" transform="translate(0,0)"/>
<path d="" fill="#FFFFFF" transform="translate(0,0)"/>
<path d="" fill="#FFFFFF" transform="translate(0,0)"/>
<path d="" fill="#FFFFFF" transform="translate(0,0)"/>
<path d="" fill="#FFFFFF" transform="translate(0,0)"/>
<path d="" fill="#FFFFFF" transform="translate(0,0)"/>
<path d="" fill="#808080" transform="translate(0,0)"/>
<path d="" fill="#8080FF" transform="translate(0,0)"/>
<path d="" fill="#FFFFFF" transform="translate(0,0)"/>
<path d="" fill="#FFFFFF" transform="translate(0,0)"/>
<path d="" fill="#FFFFFF" transform="translate(0,0)"/>
<path d="" fill="#FFFFFF" transform="translate(0,0)"/>
</svg>
