<?xml version="1.0" encoding="UTF-8"?>
<svg version="1.1" xmlns="http://www.w3.org/2000/svg" width="1024" height="1024">
<path d="M0 0 C1.51964041 -0.00206625 1.51964041 -0.00206625 3.06998062 -0.00417423 C4.17979168 -0.00057612 5.28960274 0.00302198 6.43304443 0.00672913 C7.62298885 0.00660859 8.81293327 0.00648806 10.03893661 0.00636387 C13.89395766 0.00711075 17.74893047 0.01472885 21.60394287 0.02259827 C23.98268612 0.02406838 26.3614297 0.02508866 28.74017334 0.02565002 C37.56455978 0.03089487 46.3889393 0.04485605 55.21331787 0.05775452 C74.93081787 0.07837952 94.64831787 0.09900452 114.96331787 0.12025452 C114.96331787 68.43025452 114.96331787 136.74025452 114.96331787 207.12025452 C156.66706787 206.90369202 156.66706787 206.90369202 199.21331787 206.68275452 C207.99989014 206.63965149 216.7864624 206.59654846 225.83929443 206.55213928 C233.69888672 206.50889761 233.69888672 206.50889761 241.55847168 206.46435547 C245.06578788 206.44451363 248.57310604 206.42742668 252.08044434 206.4119873 C256.55097825 206.39221847 261.02146364 206.36778878 265.49195433 206.33994853 C267.13468279 206.33051852 268.77742176 206.32274165 270.42016649 206.31678498 C272.63563307 206.30851675 274.85098235 206.29425808 277.06640625 206.2784729 C278.30898319 206.27202035 279.55156013 206.2655678 280.83179092 206.25891972 C284.14299538 206.21656404 284.14299538 206.21656404 287.96331787 205.12025452 C287.96331787 137.47025452 287.96331787 69.82025452 287.96331787 0.12025452 C306.91769287 0.05837952 325.87206787 -0.00349548 345.40081787 -0.06724548 C354.36193726 -0.1082135 354.36193726 -0.1082135 363.50408936 -0.15000916 C370.82672119 -0.16355896 370.82672119 -0.16355896 374.26008606 -0.16607666 C376.64637431 -0.17066862 379.03265581 -0.18118914 381.41889954 -0.19647217 C385.04377242 -0.2185178 388.66822171 -0.22146058 392.29315186 -0.22032166 C393.87467246 -0.23651314 393.87467246 -0.23651314 395.48814297 -0.25303173 C404.07391881 -0.21706172 412.35457221 1.26250268 418.96331787 7.12025452 C423.28282425 13.78692085 424.72467007 19.70709092 424.77191162 27.55506897 C424.79611679 28.5431294 424.82032196 29.53118982 424.84526062 30.54919147 C424.91339987 33.7398455 424.94281883 36.92896065 424.96331787 40.12025452 C424.97405334 41.17549191 424.98478882 42.23072929 424.99584961 43.31794357 C425.05967694 50.0596649 425.06227058 56.80018471 425.03848267 63.54211998 C425.02547025 67.26261334 425.01914351 70.98307023 425.01434326 74.70358276 C425.00305999 82.57165682 424.98375157 90.43969962 424.96331787 98.30775452 C424.93956292 107.50102628 424.91935372 116.69428606 424.90737915 125.88758278 C424.90090682 129.5503835 424.88841353 133.21313203 424.87567139 136.87591553 C424.87204152 139.10604304 424.86868946 141.33617103 424.86566162 143.56629944 C424.8604953 144.58176849 424.85532898 145.59723755 424.8500061 146.64347839 C424.84993561 147.57495193 424.84986511 148.50642548 424.84979248 149.46612549 C424.84757187 150.27324069 424.84535126 151.08035589 424.84306335 151.91192913 C424.89051119 154.11876345 424.89051119 154.11876345 425.49726868 156.18799305 C426.1312176 158.81637453 425.61100889 161.15389351 425.22991943 163.79701233 C424.72655099 168.18350877 424.81989237 172.58541823 424.83831787 176.99525452 C424.83445068 177.94400452 424.8305835 178.89275452 424.82659912 179.87025452 C424.82788818 180.77517639 424.82917725 181.68009827 424.83050537 182.61244202 C424.8316333 183.43083557 424.83276123 184.24922913 424.83392334 185.09242249 C424.83559686 187.18926998 424.83559686 187.18926998 425.96331787 189.12025452 C425.86876431 191.77690446 425.7148919 194.40744888 425.52581787 197.05775452 C424.99566148 205.5806497 424.84686619 214.08162433 424.83831787 222.62025452 C424.83388672 223.80740051 424.82945557 224.99454651 424.82489014 226.21766663 C424.82674316 227.33020813 424.82859619 228.44274963 424.83050537 229.58900452 C424.8316333 230.58351624 424.83276123 231.57802795 424.83392334 232.60267639 C424.85750731 235.24801658 424.85750731 235.24801658 425.96331787 238.12025452 C425.63331787 238.45025452 425.30331787 238.78025452 424.96331787 239.12025452 C424.86527663 240.52170712 424.83533608 241.92802396 424.83392334 243.332901 C424.83077118 244.22730392 424.82761902 245.12170685 424.82437134 246.04321289 C424.82639557 247.01609756 424.8284198 247.98898224 424.83050537 248.99134827 C424.82954865 249.98401199 424.82859192 250.97667572 424.8276062 251.99942017 C424.82692421 254.10358239 424.82877981 256.2077467 424.83294678 258.31190491 C424.83828913 261.54038711 424.83300532 264.76872983 424.82659912 267.99720764 C424.82726001 270.03692149 424.8285414 272.07663525 424.83050537 274.11634827 C424.82746902 275.57263893 424.82746902 275.57263893 424.82437134 277.05834961 C424.8275235 277.95590469 424.83067566 278.85345978 424.83392334 279.7782135 C424.83471893 280.57017624 424.83551453 281.36213898 424.83633423 282.17810059 C424.84256402 284.20200108 424.84256402 284.20200108 425.96331787 286.12025452 C426.19520193 293.42460234 426.19520193 293.42460234 424.96331787 297.12025452 C425.12831787 297.90400452 425.29331787 298.68775452 425.46331787 299.49525452 C425.96331787 302.12025452 425.96331787 302.12025452 425.50238037 304.24134827 C424.777104 308.11474455 424.81831224 311.87664892 424.83831787 315.80775452 C424.83445068 316.57925842 424.8305835 317.35076233 424.82659912 318.14564514 C424.73495673 322.26494262 424.73495673 322.26494262 425.96331787 326.12025452 C425.72038399 327.89173301 425.47654339 329.66308932 425.22970963 331.43402863 C424.61849863 337.59732297 424.82516426 343.83044051 424.83392334 350.01966858 C424.83256682 351.63010192 424.83078547 353.24053496 424.82861328 354.85096741 C424.82407028 359.20600304 424.8258152 363.56101488 424.82899237 367.91605091 C424.83153043 372.47856522 424.82917456 377.04107753 424.8276062 381.60359192 C424.82578947 389.25986597 424.82817857 396.91613037 424.83294678 404.57240295 C424.83839622 413.42479037 424.8366198 422.27715477 424.83112037 431.12954164 C424.82658438 438.73564929 424.82594085 446.34175001 424.82855904 453.94785857 C424.83011813 458.48848457 424.83032547 463.02909974 424.82702255 467.56972504 C424.82413653 471.83460571 424.82613303 476.09945665 424.83191681 480.36433411 C424.83324014 481.93006592 424.83285752 483.49580024 424.83065414 485.06153107 C424.8279261 487.19671971 424.83134399 489.33181271 424.83633423 491.46699524 C424.83671125 492.66230991 424.83708828 493.85762459 424.83747673 495.08916092 C424.94292451 497.6290465 425.21372172 499.70697118 425.96331787 502.12025452 C425.63331787 502.12025452 425.30331787 502.12025452 424.96331787 502.12025452 C424.63331787 504.10025452 424.30331787 506.08025452 423.96331787 508.12025452 C423.34327881 507.70775452 422.72323975 507.29525452 422.08441162 506.87025452 C382.94846014 481.3492847 336.4471019 469.23895803 290.84344482 461.60438538 C280.18997241 459.78415588 269.19133842 457.89379133 261.96331787 449.12025452 C258.57827184 444.01188361 255.77535232 438.55725418 252.96331787 433.12025452 C252.57901611 432.38194397 252.19471436 431.64363342 251.79876709 430.88294983 C250.67681414 428.71704321 249.56624242 426.54590718 248.46331787 424.37025452 C248.12501953 423.70332581 247.78672119 423.03639709 247.43817139 422.34925842 C245.91571112 419.28227895 244.77896648 416.42820623 243.96331787 413.12025452 C243.42536917 411.65368346 242.86320034 410.19588132 242.28363037 408.74525452 C237.53117886 396.6146082 233.32722436 384.38882353 229.52581787 371.93275452 C229.29701935 371.18313446 229.06822083 370.4335144 228.83248901 369.66117859 C226.12971212 360.75804615 223.57872373 351.82158563 221.18206787 342.83119202 C220.95704086 341.98805954 220.73201385 341.14492706 220.50016785 340.27624512 C219.41870013 336.20967007 218.35317603 332.13975851 217.31121826 328.06288147 C216.9257942 326.58589276 216.5402998 325.1089224 216.15472412 323.63197327 C215.99157715 322.97309113 215.82843018 322.31420898 215.66033936 321.63536072 C214.11914096 315.7877896 212.11881252 310.55725095 206.96331787 307.12025452 C202.9079288 306.10640725 200.34549916 306.02308978 196.27581787 307.05775452 C189.25166737 311.43128219 187.78078452 320.5607322 185.79144287 328.14369202 C185.36635437 329.71977486 185.36635437 329.71977486 184.93267822 331.32769775 C184.33035918 333.56248557 183.73156566 335.79822615 183.13604736 338.03483582 C181.58916229 343.83596179 180.00938289 349.62812372 178.43206787 355.42103577 C177.97317169 357.10938789 177.97317169 357.10938789 177.50500488 358.83184814 C154.40988379 443.6473802 154.40988379 443.6473802 132.96331787 457.12025452 C124.02673291 460.92618179 114.47479801 462.56628073 104.99066162 464.38294983 C87.6793974 467.72078632 70.77489556 471.75851018 53.96331787 477.12025452 C52.95962158 477.43961975 51.95592529 477.75898499 50.92181396 478.08802795 C26.84052537 485.86637498 2.69227077 495.70793822 -18.46246338 509.74916077 C-19.31195557 510.2016217 -20.16144775 510.65408264 -21.03668213 511.12025452 C-22.02668213 510.79025452 -23.01668213 510.46025452 -24.03668213 510.12025452 C-24.05965937 454.50171899 -24.07723637 398.88318395 -24.08774746 343.26464459 C-24.0889979 336.67208097 -24.09029225 330.07951735 -24.09161377 323.48695374 C-24.09187608 322.17470229 -24.09213839 320.86245085 -24.09240865 319.51043421 C-24.09673911 298.368219 -24.10461197 277.22600656 -24.11383492 256.08379298 C-24.1232449 234.32856263 -24.12875315 212.57333371 -24.13077062 190.81810141 C-24.13213073 177.4350524 -24.13639798 164.05201122 -24.1445986 150.66896462 C-24.14995706 141.44434329 -24.15146618 132.21972589 -24.15018351 122.99510312 C-24.14955405 117.70320502 -24.15039392 112.41132041 -24.1558876 107.11942482 C-24.17766115 84.96641684 -24.02940972 62.82468675 -23.59208679 40.67555237 C-23.57264132 39.63408025 -23.55319584 38.59260813 -23.53316111 37.51957625 C-23.47680897 34.57379058 -23.41414479 31.62821466 -23.34909725 28.68260956 C-23.33274035 27.81535848 -23.31638345 26.9481074 -23.29953089 26.05457598 C-23.18574 21.3263292 -22.80933609 16.78755004 -22.03668213 12.12025452 C-21.37668213 12.12025452 -20.71668213 12.12025452 -20.03668213 12.12025452 C-19.7969165 11.36228577 -19.55715088 10.60431702 -19.31011963 9.82337952 C-17.8350979 6.6923518 -16.55837939 5.69873451 -13.66168213 3.87025452 C-12.89082275 3.37009827 -12.11996338 2.86994202 -11.32574463 2.35462952 C-7.5492123 0.31813768 -4.25647767 -0.00445238 0 0 Z " fill="#000000" transform="translate(310.03668212890625,147.87974548339844)"/>
<path d="M0 0 C0.66 0 1.32 0 2 0 C2.17015625 0.7621582 2.3403125 1.52431641 2.515625 2.30957031 C10.33231861 37.10009359 19.30344871 71.8248382 35 104 C35.34998047 104.72977051 35.69996094 105.45954102 36.06054688 106.21142578 C47.06313538 128.94908425 63.3028275 152.70621894 87.5625 162.4375 C94.70453947 164.79783213 101.92946033 165.20389078 108.97265625 162.265625 C113.27110013 159.58220339 116.61967297 155.73244443 120 152 C122 153 122 153 123 155.8515625 C131.30430888 187.18735302 129.36585401 217.54612671 113.39453125 246.046875 C110.17250073 251.5344162 106.25171413 256.28265829 102 261 C101.35417969 261.77601563 100.70835937 262.55203125 100.04296875 263.3515625 C94.96276225 269.3733144 89.19421922 274.16101536 83 279 C81.91465444 279.86238826 80.83004062 280.72569811 79.74609375 281.58984375 C72.82558839 287.08823203 65.79346919 292.42450959 58.70947266 297.70996094 C49.63443588 304.24775156 49.63443588 304.24775156 41.36328125 311.71484375 C40 313 40 313 38 313 C38 313.66 38 314.32 38 315 C36.85984026 316.17471004 35.71357427 317.34390779 34.54296875 318.48828125 C22.19476091 330.58639881 12.80962761 347.50201714 11.83203125 365.0078125 C11.78482529 372.54188348 12.50986252 379.61583661 14 387 C14.66 387 15.32 387 16 387 C15.67 387.99 15.34 388.98 15 390 C-8.07014616 380.52675158 -23.32057316 363.82525164 -33 341 C-40.1451923 322.25712167 -40.68758353 302.56500685 -36.97973633 283.02514648 C-35.55053998 275.07881477 -35.41606773 266.96078604 -40 260 C-42.79705617 256.99575448 -45.79109832 256.2997719 -49.8515625 255.9375 C-55.38701184 256.09853125 -60.56106154 258.65134338 -64.6171875 262.375 C-70.41882589 269.19274455 -72.41853861 277.17581103 -72 286 C-70.99055192 291.49843309 -69.22484662 296.39307625 -66 301 C-66.66 301.33 -67.32 301.66 -68 302 C-68.61875 301.33677734 -68.61875 301.33677734 -69.25 300.66015625 C-71.06436497 298.93893948 -72.87292565 297.74737115 -75 296.4375 C-84.94772689 289.88104364 -92.83137811 281.43959752 -100 272 C-100.59296875 271.23429687 -101.1859375 270.46859375 -101.796875 269.6796875 C-121.37603783 243.1849488 -128.66784104 209.37728589 -124.43359375 176.87109375 C-123.16829668 168.86735416 -121.64398307 160.28796614 -118 153 C-117.34 153 -116.68 153 -116 153 C-115.5875 153.721875 -115.175 154.44375 -114.75 155.1875 C-111.65143784 160.16733204 -107.52057699 163.18370627 -102 165 C-88.90754714 166.88945999 -79.34564722 162.18621682 -69.0625 154.5 C-67.6901916 153.35472792 -66.33445067 152.18916773 -65 151 C-64.4225 150.49210938 -63.845 149.98421875 -63.25 149.4609375 C-23.72460867 112.31438917 -11.55628994 50.57087353 0 0 Z " fill="#4483FE" transform="translate(511,480)"/>
<path d="M0 0 C0.33 0 0.66 0 1 0 C1.9765625 6.0546875 1.9765625 6.0546875 2 8 C1.34 8.66 0.68 9.32 0 10 C-0.79544282 11.95347266 -1.51614689 13.93798263 -2.1875 15.9375 C-2.55230469 16.99839844 -2.91710937 18.05929687 -3.29296875 19.15234375 C-4.28164335 22.04759115 -4.28164335 22.04759115 -3 25 C-4.30208796 27.02048131 -5.63988391 29.01811655 -7 31 C-7.66915474 32.99916892 -8.33554858 34.99926295 -9 37 C-10.49060535 40.03656474 -12.0702067 43.01447125 -13.66015625 46 C-15.02126561 49.04761514 -15.50958372 51.71798337 -16 55 C-16.97850195 56.02104551 -17.97980427 57.0206121 -19 58 C-19.70626239 59.98636298 -20.36893571 61.98848259 -21 64 C-22.92793134 68.53063865 -25.38915637 71.80916174 -28.6953125 75.38671875 C-30.22206402 77.08174757 -30.22206402 77.08174757 -31 80 C-31.99 80.495 -31.99 80.495 -33 81 C-32.67 81.66 -32.34 82.32 -32 83 C-34.64 84.98 -37.28 86.96 -40 89 C-38.54523347 86.09046694 -37.10873886 83.52743929 -35.34765625 80.82421875 C-19.13406716 55.57093014 -8.50968141 28.69344836 0 0 Z " fill="#4E5CEF" transform="translate(499,529)"/>
<path d="M0 0 C0.66 0 1.32 0 2 0 C2.6986179 2.91440599 3.3842031 5.83086087 4.0625 8.75 C4.26166016 9.575 4.46082031 10.4 4.66601562 11.25 C4.84970703 12.04921875 5.03339844 12.8484375 5.22265625 13.671875 C5.48187866 14.77160645 5.48187866 14.77160645 5.74633789 15.89355469 C6.02424428 18.20132783 5.69809241 19.79916037 5 22 C5 21.34 5 20.68 5 20 C4.34 19.67 3.68 19.34 3 19 C2.26924352 16.6859378 1.59861742 14.35171131 1 12 C-1.27309882 18.59198657 -3.20968433 25.2308844 -5.03515625 31.9609375 C-6 35 -6 35 -8 38 C-7.26854384 30.00549326 -5.29725079 22.29027925 -3.4375 14.5 C-3.10443407 13.09123648 -2.7717485 11.68238298 -2.43945312 10.2734375 C-1.63068782 6.84790907 -0.8167711 3.42362954 0 0 Z " fill="#5157E2" transform="translate(511,480)"/>
<path d="M0 0 C2.72268543 4.08402815 4.55932148 8.46594985 6.5625 12.9375 C6.97435547 13.84435547 7.38621094 14.75121094 7.81054688 15.68554688 C8.20435547 16.56146484 8.59816406 17.43738281 9.00390625 18.33984375 C9.36299072 19.13769287 9.7220752 19.93554199 10.09204102 20.75756836 C10.93101275 22.82961874 11.5212528 24.81994036 12 27 C10 25.1875 10 25.1875 8 23 C8 22.01 8 21.02 8 20 C7.34 20 6.68 20 6 20 C5.34 17.03 4.68 14.06 4 11 C3.01 11 2.02 11 1 11 C0.67 7.37 0.34 3.74 0 0 Z " fill="#4E5BEF" transform="translate(535,561)"/>
<path d="M0 0 C0.66 0 1.32 0 2 0 C2.50471197 1.76949612 3.00360685 3.54065223 3.5 5.3125 C3.7784375 6.29863281 4.056875 7.28476562 4.34375 8.30078125 C5 11 5 11 5 14 C5.66 14 6.32 14 7 14 C6.67 14.99 6.34 15.98 6 17 C4.68 16.34 3.36 15.68 2 15 C2.33 14.01 2.66 13.02 3 12 C2.67 11.01 2.34 10.02 2 9 C1 6 1 6 2 3 C1.34 3 0.68 3 0 3 C0 2.01 0 1.02 0 0 Z " fill="#5AC7FA" transform="translate(520,853)"/>
<path d="M0 0 C0.66 0 1.32 0 2 0 C2.65234375 1.734375 2.65234375 1.734375 3 4 C2.00390625 6.140625 2.00390625 6.140625 0.5625 8.25 C0.08941406 8.95640625 -0.38367188 9.6628125 -0.87109375 10.390625 C-1.24363281 10.92171875 -1.61617188 11.4528125 -2 12 C-3.12377697 8.69564916 -2.89554742 6.9493138 -1.5625 3.75 C-1.27503906 3.04359375 -0.98757813 2.3371875 -0.69140625 1.609375 C-0.46324219 1.07828125 -0.23507812 0.5471875 0 0 Z " fill="#5269EE" transform="translate(393,633)"/>
<path d="M0 0 C0 4.38968456 -2.12805101 5.76905739 -5 9 C-5.66 8.67 -6.32 8.34 -7 8 C-4.69 5.36 -2.38 2.72 0 0 Z M-10 11 C-10 11.99 -10 12.98 -10 14 C-11.98 14.99 -11.98 14.99 -14 16 C-12.68 14.35 -11.36 12.7 -10 11 Z " fill="#4F63F1" transform="translate(458,618)"/>
<path d="M0 0 C1.25955231 3.77865693 0.48087189 5.03411786 -0.9375 8.6875 C-1.31777344 9.68136719 -1.69804687 10.67523437 -2.08984375 11.69921875 C-2.39019531 12.45847656 -2.69054687 13.21773437 -3 14 C-4.078125 12.22265625 -4.078125 12.22265625 -5 10 C-3.69707075 6.28665164 -2.18173966 3.27260948 0 0 Z " fill="#0D0E1E" transform="translate(477,536)"/>
<path d="M0 0 C0.33 0.66 0.66 1.32 1 2 C1.66 2 2.32 2 3 2 C3.33 4.97 3.66 7.94 4 11 C3.67 10.34 3.34 9.68 3 9 C2.34 8.67 1.68 8.34 1 8 C0.40644386 5.35139573 0.25790731 2.70802678 0 0 Z " fill="#4F59E7" transform="translate(513,491)"/>
<path d="M0 0 C0.66 0.33 1.32 0.66 2 1 C2 1.99 2 2.98 2 4 C0.35 4.66 -1.3 5.32 -3 6 C-3 3 -3 3 -1.5 1.3125 C-0.7575 0.6628125 -0.7575 0.6628125 0 0 Z " fill="#4D62E7" transform="translate(631,632)"/>
<path d="M0 0 C2.72426311 2.35277269 3.8141763 4.62496331 5 8 C3.68 8 2.36 8 1 8 C0.67 5.36 0.34 2.72 0 0 Z " fill="#4B5CEE" transform="translate(551,596)"/>
<path d="M0 0 C1.98 0 3.96 0 6 0 C6 0.33 6 0.66 6 1 C4.02 1 2.04 1 0 1 C0 0.67 0 0.34 0 0 Z " fill="#000000" transform="translate(498,353)"/>
<path d="M0 0 C0.33 0 0.66 0 1 0 C1 1.65 1 3.3 1 5 C0.67 5 0.34 5 0 5 C0 3.35 0 1.7 0 0 Z " fill="#000000" transform="translate(596,338)"/>
<path d="M0 0 C4 1 4 1 4 1 Z " fill="#000000" transform="translate(530,353)"/>
<path d="M0 0 C4 1 4 1 4 1 Z " fill="#000000" transform="translate(482,353)"/>
<path d="M0 0 C3 1 3 1 3 1 Z " fill="#000000" transform="translate(570,353)"/>
<path d="M0 0 C3 1 3 1 3 1 Z " fill="#000000" transform="translate(458,353)"/>
<path d="M0 0 C0.33 0.66 0.66 1.32 1 2 C0.34 1.67 -0.32 1.34 -1 1 C-0.67 0.67 -0.34 0.34 0 0 Z " fill="#000000" transform="translate(592,352)"/>
<path d="" fill="#000000" transform="translate(0,0)"/>
<path d="" fill="#D4D4FF" transform="translate(0,0)"/>
<path d="" fill="#BFBFFF" transform="translate(0,0)"/>
<path d="M0 0 C2 1 2 1 2 1 Z " fill="#FFFFFF" transform="translate(609,611)"/>
<path d="" fill="#AAAAD4" transform="translate(0,0)"/>
<path d="" fill="#FFFFFF" transform="translate(0,0)"/>
<path d="M0 0 C2 1 2 1 2 1 Z " fill="#000000" transform="translate(586,353)"/>
<path d="M0 0 C2 1 2 1 2 1 Z " fill="#000000" transform="translate(583,353)"/>
<path d="M0 0 C2 1 2 1 2 1 Z " fill="#000000" transform="translate(578,353)"/>
<path d="M0 0 C2 1 2 1 2 1 Z " fill="#000000" transform="translate(554,353)"/>
<path d="M0 0 C2 1 2 1 2 1 Z " fill="#000000" transform="translate(551,353)"/>
<path d="M0 0 C2 1 2 1 2 1 Z " fill="#000000" transform="translate(543,353)"/>
<path d="M0 0 C2 1 2 1 2 1 Z " fill="#000000" transform="translate(535,353)"/>
<path d="M0 0 C2 1 2 1 2 1 Z " fill="#000000" transform="translate(527,353)"/>
<path d="M0 0 C2 1 2 1 2 1 Z " fill="#000000" transform="translate(523,353)"/>
<path d="M0 0 C2 1 2 1 2 1 Z " fill="#000000" transform="translate(519,353)"/>
<path d="M0 0 C2 1 2 1 2 1 Z " fill="#000000" transform="translate(511,353)"/>
<path d="M0 0 C2 1 2 1 2 1 Z " fill="#000000" transform="translate(506,353)"/>
<path d="M0 0 C2 1 2 1 2 1 Z " fill="#000000" transform="translate(495,353)"/>
<path d="M0 0 C2 1 2 1 2 1 Z " fill="#000000" transform="translate(479,353)"/>
<path d="M0 0 C2 1 2 1 2 1 Z " fill="#000000" transform="translate(455,353)"/>
<path d="M0 0 C2 1 2 1 2 1 Z " fill="#000000" transform="translate(447,353)"/>
<path d="M0 0 C2 1 2 1 2 1 Z " fill="#000000" transform="translate(442,353)"/>
<path d="M0 0 C2 1 2 1 2 1 Z " fill="#000000" transform="translate(434,353)"/>
<path d="M0 0 C2 1 2 1 2 1 Z " fill="#000000" transform="translate(426,353)"/>
<path d="" fill="#000000" transform="translate(0,0)"/>
<path d="" fill="#000000" transform="translate(0,0)"/>
<path d="" fill="#000000" transform="translate(0,0)"/>
<path d="" fill="#000000" transform="translate(0,0)"/>
<path d="" fill="#000000" transform="translate(0,0)"/>
<path d="" fill="#000000" transform="translate(0,0)"/>
<path d="" fill="#000000" transform="translate(0,0)"/>
<path d="" fill="#000000" transform="translate(0,0)"/>
<path d="" fill="#000000" transform="translate(0,0)"/>
<path d="" fill="#000000" transform="translate(0,0)"/>
<path d="" fill="#FFFFFF" transform="translate(0,0)"/>
<path d="" fill="#66CCFF" transform="translate(0,0)"/>
<path d="" fill="#FFFFFF" transform="translate(0,0)"/>
<path d="" fill="#FFFFFF" transform="translate(0,0)"/>
<path d="" fill="#FFFFFF" transform="translate(0,0)"/>
<path d="" fill="#80FFFF" transform="translate(0,0)"/>
<path d="" fill="#FFFFFF" transform="translate(0,0)"/>
<path d="" fill="#FFFFFF" transform="translate(0,0)"/>
<path d="" fill="#FFFFFF" transform="translate(0,0)"/>
<path d="" fill="#FFFFFF" transform="translate(0,0)"/>
<path d="" fill="#FFFFFF" transform="translate(0,0)"/>
<path d="" fill="#80FFFF" transform="translate(0,0)"/>
<path d="" fill="#80FFFF" transform="translate(0,0)"/>
<path d="" fill="#FFFFFF" transform="translate(0,0)"/>
<path d="" fill="#FFFFFF" transform="translate(0,0)"/>
<path d="" fill="#FFFFFF" transform="translate(0,0)"/>
<path d="" fill="#FFFFFF" transform="translate(0,0)"/>
<path d="" fill="#FFFFFF" transform="translate(0,0)"/>
<path d="" fill="#FFFFFF" transform="translate(0,0)"/>
<path d="" fill="#FFFFFF" transform="translate(0,0)"/>
<path d="" fill="#FFFFFF" transform="translate(0,0)"/>
<path d="" fill="#FFFFFF" transform="translate(0,0)"/>
<path d="" fill="#55AAFF" transform="translate(0,0)"/>
<path d="" fill="#FFFFFF" transform="translate(0,0)"/>
<path d="" fill="#FFFFFF" transform="translate(0,0)"/>
<path d="" fill="#808080" transform="translate(0,0)"/>
<path d="" fill="#FFFFFF" transform="translate(0,0)"/>
<path d="" fill="#FFFFFF" transform="translate(0,0)"/>
<path d="" fill="#FFFFFF" transform="translate(0,0)"/>
<path d="" fill="#5555AA" transform="translate(0,0)"/>
<path d="" fill="#FFFFFF" transform="translate(0,0)"/>
<path d="" fill="#FFFFFF" transform="translate(0,0)"/>
<path d="" fill="#FFFFFF" transform="translate(0,0)"/>
<path d="" fill="#FFFFFF" transform="translate(0,0)"/>
<path d="" fill="#FFFFFF" transform="translate(0,0)"/>
<path d="" fill="#808080" transform="translate(0,0)"/>
<path d="" fill="#8080FF" transform="translate(0,0)"/>
<path d="" fill="#FFFFFF" transform="translate(0,0)"/>
<path d="" fill="#FFFFFF" transform="translate(0,0)"/>
<path d="" fill="#808080" transform="translate(0,0)"/>
<path d="" fill="#FFFFFF" transform="translate(0,0)"/>
<path d="" fill="#FFFFFF" transform="translate(0,0)"/>
<path d="" fill="#000000" transform="translate(0,0)"/>
<path d="" fill="#000000" transform="translate(0,0)"/>
<path d="" fill="#000000" transform="translate(0,0)"/>
<path d="" fill="#000000" transform="translate(0,0)"/>
<path d="" fill="#000000" transform="translate(0,0)"/>
<path d="" fill="#000000" transform="translate(0,0)"/>
<path d="" fill="#000000" transform="translate(0,0)"/>
<path d="" fill="#000000" transform="translate(0,0)"/>
<path d="" fill="#000000" transform="translate(0,0)"/>
<path d="" fill="#000000" transform="translate(0,0)"/>
<path d="" fill="#000000" transform="translate(0,0)"/>
<path d="" fill="#000000" transform="translate(0,0)"/>
<path d="" fill="#000000" transform="translate(0,0)"/>
<path d="" fill="#000000" transform="translate(0,0)"/>
<path d="" fill="#000000" transform="translate(0,0)"/>
<path d="" fill="#000000" transform="translate(0,0)"/>
<path d="" fill="#000000" transform="translate(0,0)"/>
<path d="" fill="#000000" transform="translate(0,0)"/>
<path d="" fill="#000000" transform="translate(0,0)"/>
<path d="" fill="#000000" transform="translate(0,0)"/>
<path d="" fill="#000000" transform="translate(0,0)"/>
<path d="" fill="#000000" transform="translate(0,0)"/>
<path d="" fill="#000000" transform="translate(0,0)"/>
<path d="" fill="#000000" transform="translate(0,0)"/>
<path d="" fill="#000000" transform="translate(0,0)"/>
<path d="" fill="#FFFFFF" transform="translate(0,0)"/>
<path d="" fill="#000000" transform="translate(0,0)"/>
<path d="" fill="#FFFFFF" transform="translate(0,0)"/>
<path d="" fill="#000000" transform="translate(0,0)"/>
<path d="" fill="#000000" transform="translate(0,0)"/>
<path d="" fill="#000000" transform="translate(0,0)"/>
<path d="" fill="#000000" transform="translate(0,0)"/>
<path d="" fill="#000000" transform="translate(0,0)"/>
<path d="" fill="#000000" transform="translate(0,0)"/>
<path d="" fill="#000000" transform="translate(0,0)"/>
<path d="" fill="#000000" transform="translate(0,0)"/>
<path d="" fill="#000000" transform="translate(0,0)"/>
<path d="" fill="#000000" transform="translate(0,0)"/>
<path d="" fill="#FFFFFF" transform="translate(0,0)"/>
</svg>
