<svg xmlns="http://www.w3.org/2000/svg" width="1024" height="1024"><path fill="#e7e7ee" d="M730.75 155.875c4.516 6.273 4.642 12.44 4.871 19.915l.114 3.2c.348 10.675.381 21.347.34 32.027q-.019 5.181-.024 10.361-.018 10.968-.051 21.935-.037 12.797-.056 25.594-.01 5.075-.032 10.148l-.01 6.255-.015 2.798c0 5.564.328 11.018.91 16.552.24 2.761.103 5.341-.235 8.09-.479 4.757-.678 9.471-.687 14.25l-.008 3.75c0 3.047 0 3.047.651 5.092.61 2.731.473 5.14.326 7.935l-.162 3.467-.182 3.693c-.436 9.916-.517 19.674.182 29.576l.162 2.39.162 2.046C737 387 737 387 736.508 389.327c-.489 2.573-.635 4.878-.637 7.492l-.01 2.81.006 3-.003 3.111q0 3.249.006 6.498c.005 3.316 0 6.632-.007 9.948q0 3.159.004 6.318l-.006 3.005.01 2.802.002 2.457c.036 2.199.036 2.199.698 4.088.429 2.144.429 2.144-.037 5.253-.566 4.123-.664 8.136-.64 12.285v2.48q.008 4.093.024 8.185l.01 5.885q.01 6.326.027 12.652c.019 6.668.028 13.337.036 20.006q.037 28.44.105 56.88.037 15.717.052 31.432.01 9.944.044 19.887.016 6.185.016 12.368.003 2.868.017 5.735c.012 2.61.012 5.22.009 7.829l.02 2.29c-.021 4.37-.642 7.914-2.254 11.977l-1.879-1.031a1756 1756 0 0 0-5.766-3.14 630 630 0 0 1-6.617-3.657C702.321 638.576 683.908 631.1 665 625l-2.455-.796c-9.75-3.127-19.565-5.789-29.545-8.079-.938-.215-1.877-.43-2.843-.653-3.878-.86-7.154-1.472-11.157-1.472v-2l-6 1v-2l-1.625.625c-2.375.375-2.375.375-4.914-.492-3.535-1.157-6.94-1.798-10.595-2.426-16.549-2.888-16.549-2.888-22.866-8.707v-2h-2l-1.207-2.45-1.606-3.237-1.582-3.2c-1.548-3.097-1.548-3.097-3.304-5.883C562 581 562 581 562 579h-2q-.72-2.374-1.437-4.75c-.4-1.323-.4-1.323-.81-2.672A141 141 0 0 1 556 565h-2l-.285-1.902c-1.007-4.365-2.585-8.47-4.153-12.66l-.947-2.577c-1.648-4.509-1.648-4.509-3.64-8.87-1.005-2.053-1.651-4.014-2.264-6.214l-.664-2.38-.672-2.46-.695-2.47C539 519.383 539 519.383 539 516l-2-1a100 100 0 0 1-1.848-7q-.525-2.204-1.055-4.406l-.547-2.305c-1.38-5.742-2.9-11.45-4.422-17.156q-.57-2.152-1.125-4.31c-2.805-12.932-2.805-12.932-10.65-22.991-2.886-1.442-5.337-1.832-8.54-1.832-4.378 1.556-6.178 4.68-8.15 8.778-2.956 7.831-5.275 15.735-7.314 23.846-6.59 26.106-14.128 51.807-24.288 76.768a490 490 0 0 0-2.67 6.725C455.276 598.655 455.276 598.655 444 605c-6.236 2.57-12.423 4.114-19.016 5.488l-6.484 1.393q-5.034 1.07-10.068 2.131C394.06 617.054 379.982 620.481 366 625l-3.665 1.172C347.802 630.909 333.763 636.352 320 643l-2.178 1.043a296 296 0 0 0-24.931 13.488C290 659 290 659 286 659c-.748-85.94-1.075-171.879-1.123-298.131a96542 96542 0 0 0-.009-30.634 59963 59963 0 0 1-.002-49.719q.001-7.304-.002-14.612c-.011-25.315.004-50.632.408-75.945q.048-3.107.082-6.215c.032-2.827.083-5.653.139-8.48l.018-2.46c.174-6.919 1.374-13.309 5.926-18.679L294 152l1.847-1.56c6.848-4.581 17.11-3.726 25.034-3.683l3.429-.006c3.701-.003 7.403.007 11.104.019h7.748q8.087.003 16.173.024 9.356.023 18.71.02 9.018 0 18.035.013l7.668.006q5.333.004 10.665.022l3.223-.002 2.914.013 2.546.005C425 147 425 147 426 148c.098 2.643.13 5.26.12 7.903l.003 2.54c.002 2.83-.004 5.659-.01 8.489l.001 6.06q-.001 8.252-.013 16.505c-.006 5.743-.006 11.486-.008 17.229q-.005 16.324-.021 32.65a75026 75026 0 0 0-.022 37.16q-.016 38.232-.05 76.464 32.14.035 64.28.052 14.924.007 29.847.023 13.005.015 26.012.02 6.888 0 13.775.01 6.482.011 12.964.008 2.38 0 4.759.006 3.249.007 6.498.001l3.673.003A41 41 0 0 0 596 352l-.003-2.983q-.033-35.97-.049-71.94-.007-17.394-.023-34.789-.015-15.165-.02-30.33 0-8.025-.01-16.052-.012-7.563-.008-15.126 0-2.767-.006-5.535c-.04-20.425-.04-20.425 1.119-27.245 1.573-1.573 3.15-1.15 5.336-1.178l2.837-.043 3.139-.032 3.287-.045q5.415-.069 10.83-.124l3.734-.042q8.783-.1 17.564-.184a5421 5421 0 0 0 20.224-.233c5.85-.077 11.698-.137 17.548-.19q3.72-.039 7.441-.092c3.485-.048 6.97-.077 10.454-.102l3.077-.056c10.968-.032 20.505 2.07 28.279 10.196"/><path fill="#4483fe" d="M511 480h2l.516 2.31C521.332 517.1 530.303 551.825 546 584l1.06 2.211c11.003 22.738 27.243 46.495 51.503 56.226 7.142 2.36 14.366 2.767 21.41-.171 4.298-2.684 7.647-6.534 11.027-10.266 2 1 2 1 3 3.852 8.304 31.335 6.366 61.694-9.605 90.195-3.222 5.487-7.143 10.236-11.395 14.953l-1.957 2.352C605.963 749.373 600.194 754.16 594 759q-1.628 1.293-3.254 2.59c-6.92 5.498-13.953 10.835-21.037 16.12-9.075 6.538-9.075 6.538-17.346 14.005C551 793 551 793 549 793v2a187 187 0 0 1-3.457 3.488c-12.348 12.098-21.733 29.014-22.711 46.52-.047 7.534.678 14.608 2.168 21.992h2l-1 3c-23.07-9.473-38.32-26.175-48-49-7.145-18.743-7.688-38.435-3.98-57.975 1.43-7.946 1.564-16.064-3.02-23.025-2.797-3.004-5.791-3.7-9.852-4.062-5.535.16-10.71 2.713-14.765 6.437-5.802 6.818-7.802 14.8-7.383 23.625 1.01 5.498 2.775 10.393 6 15l-2 1-1.25-1.34c-1.814-1.721-3.623-2.913-5.75-4.222-9.948-6.557-17.831-14.998-25-24.438l-1.797-2.32c-19.579-26.495-26.87-60.303-22.637-92.809 1.266-8.004 2.79-16.583 6.434-23.871h2l1.25 2.188c3.099 4.98 7.23 7.996 12.75 9.812 13.092 1.89 22.654-2.814 32.938-10.5A165 165 0 0 0 446 631l1.75-1.54C487.275 592.315 499.444 530.57 511 480"/><path fill="#4e5cef" d="M499 529h1c.977 6.055.977 6.055 1 8l-2 2a101 101 0 0 0-2.187 5.938l-1.106 3.214c-.989 2.896-.989 2.896.293 5.848a249 249 0 0 1-4 6q-1.005 3-2 6c-1.49 3.037-3.07 6.014-4.66 9-1.361 3.048-1.85 5.718-2.34 9q-1.47 1.53-3 3a168 168 0 0 0-2 6c-1.928 4.53-4.39 7.81-7.695 11.387-1.527 1.695-1.527 1.695-2.305 4.613l-2 1 1 2-8 6c1.455-2.91 2.891-5.473 4.652-8.176C479.866 584.571 490.49 557.694 499 529"/><path fill="#5157e2" d="M511 480h2q1.046 4.37 2.063 8.75l.603 2.5.557 2.422.523 2.222c.278 2.307-.048 3.905-.746 6.106v-2l-2-1a129 129 0 0 1-2-7c-2.273 6.592-4.21 13.23-6.035 19.96C505 515 505 515 503 518c.731-7.995 2.703-15.71 4.563-23.5l.998-4.227Q509.774 485.135 511 480"/><path fill="#4e5bef" d="M535 561c2.723 4.084 4.56 8.466 6.563 12.938l1.248 2.748 1.193 2.654 1.088 2.418c.839 2.072 1.43 4.062 1.908 6.242-2-1.812-2-1.812-4-4v-3h-2l-2-9h-3z"/><path fill="#5ac7fa" d="M520 853h2q.757 2.654 1.5 5.313l.844 2.988C525 864 525 864 525 867h2l-1 3-4-2 1-3-1-3c-1-3-1-3 0-6h-2z"/><path fill="#5269ee" d="M393 633h2c.652 1.734.652 1.734 1 4-.996 2.14-.996 2.14-2.437 4.25l-1.434 2.14L391 645c-1.124-3.304-.896-5.05.438-8.25l.87-2.14z"/><path fill="#4f63f1" d="M458 618c0 4.39-2.128 5.77-5 9l-2-1zm-10 11v3l-4 2z"/><path fill="#4f59e7" d="m513 491 1 2h2l1 9-1-2-2-1c-.594-2.649-.742-5.292-1-8"/><path fill="#4d62e7" d="m631 632 2 1v3l-5 2c0-3 0-3 1.5-4.687z"/><path fill="#4b5cee" d="M551 596c2.724 2.353 3.814 4.625 5 8h-4z"/></svg>