<svg xmlns="http://www.w3.org/2000/svg" width="1024" height="1024"><path d="m310.037 147.88 3.07-.004 3.363.01h3.606q5.782.002 11.565.016 3.567.003 7.136.003c8.824.006 17.649.02 26.473.033L425 148v207l84.25-.437 26.626-.131 15.72-.088q5.26-.03 10.521-.052 6.705-.03 13.412-.072 2.463-.015 4.928-.023 3.322-.014 6.646-.039l3.765-.02c3.312-.042 3.312-.042 7.132-1.138V148l57.437-.187 18.104-.083c7.322-.014 7.322-.014 10.756-.016q3.579-.007 7.159-.03c3.624-.023 7.249-.026 10.874-.025l3.195-.032c8.586.036 16.866 1.515 23.475 7.373 4.32 6.667 5.761 12.587 5.809 20.435l.073 2.994A641 641 0 0 1 735 188l.033 3.198c.063 6.741.066 13.482.042 20.224q-.019 5.58-.024 11.161-.018 11.802-.051 23.605-.037 13.79-.056 27.58-.01 5.493-.032 10.988l-.01 6.69-.015 3.077v2.823l-.007 2.446c.047 2.207.047 2.207.654 4.276.634 2.628.114 4.966-.267 7.609-.504 4.386-.41 8.788-.392 13.198l-.012 2.875.004 2.742.004 2.48c.001 2.097.001 2.097 1.129 4.028a222 222 0 0 1-.438 7.938c-.53 8.522-.678 17.023-.687 25.562l-.013 3.597.005 3.372.004 3.013c.023 2.646.023 2.646 1.129 5.518l-1 1a61 61 0 0 0-.13 4.213l-.009 2.71.006 2.948-.003 3.008q0 3.156.006 6.313.005 4.842-.007 9.685 0 3.06.004 6.12l-.006 2.941.01 2.72.002 2.4c.006 2.024.006 2.024 1.127 3.942.232 7.304.232 7.304-1 11l.5 2.375c.5 2.625.5 2.625.04 4.746-.726 3.873-.685 7.635-.665 11.567l-.012 2.337c-.091 4.12-.091 4.12 1.137 7.975q-.364 2.657-.734 5.314c-.61 6.163-.404 12.396-.395 18.585l-.006 4.832q-.005 6.532 0 13.065c.003 4.562 0 9.125 0 13.687q-.004 11.485.005 22.97.006 13.278-.002 26.556-.007 11.409-.003 22.819.003 6.81-.001 13.621-.004 6.397.005 12.795 0 2.35-.002 4.697-.002 3.202.006 6.406l.001 3.622c.106 2.54.376 4.618 1.126 7.031h-1l-1 6-1.879-1.25c-39.136-25.521-85.637-37.631-131.24-45.266-10.654-1.82-21.653-3.71-28.881-12.484-3.385-5.108-6.188-10.563-9-16l-1.165-2.237a835 835 0 0 1-3.335-6.513l-1.025-2.021c-1.523-3.067-2.66-5.921-3.475-9.229q-.809-2.2-1.68-4.375c-4.752-12.13-8.956-24.356-12.758-36.812l-.693-2.272a815 815 0 0 1-7.65-26.83l-.682-2.555a1301 1301 0 0 1-3.19-12.213l-1.156-4.431-.494-1.997c-1.541-5.847-3.542-11.078-8.697-14.515-4.055-1.014-6.618-1.097-10.688-.062-7.024 4.373-8.495 13.502-10.484 21.085l-.859 3.184q-.902 3.353-1.796 6.708c-1.547 5.8-3.127 11.593-4.704 17.386-.46 1.688-.46 1.688-.927 3.41C464.447 591.528 464.447 591.528 443 605c-8.937 3.806-18.489 5.446-27.973 7.263C397.717 615.6 380.812 619.638 364 625l-3.042.968c-24.08 7.778-48.229 17.62-69.384 31.66L289 659l-3-1a744437 744437 0 0 1-.056-190.61q-.007-31.713-.021-63.426-.014-32.633-.017-65.266-.002-20.074-.014-40.15-.008-13.836-.006-27.673.002-7.938-.005-15.876c-.022-22.153.126-44.295.564-66.444l.059-3.156q.085-4.418.184-8.837l.05-2.628c.113-4.728.49-9.267 1.262-13.934h2l.727-2.297c1.475-3.13 2.751-4.125 5.648-5.953l2.336-1.516c3.776-2.036 7.07-2.359 11.326-2.354"/><path fill="#4483fe" d="M511 480h2l.516 2.31C521.332 517.1 530.303 551.825 546 584l1.06 2.211c11.003 22.738 27.243 46.495 51.503 56.226 7.142 2.36 14.366 2.767 21.41-.171 4.298-2.684 7.647-6.534 11.027-10.266 2 1 2 1 3 3.852 8.304 31.335 6.366 61.694-9.605 90.195-3.222 5.487-7.143 10.236-11.395 14.953l-1.957 2.352C605.963 749.373 600.194 754.16 594 759q-1.628 1.293-3.254 2.59c-6.92 5.498-13.953 10.835-21.037 16.12-9.075 6.538-9.075 6.538-17.346 14.005C551 793 551 793 549 793v2a187 187 0 0 1-3.457 3.488c-12.348 12.098-21.733 29.014-22.711 46.52-.047 7.534.678 14.608 2.168 21.992h2l-1 3c-23.07-9.473-38.32-26.175-48-49-7.145-18.743-7.688-38.435-3.98-57.975 1.43-7.946 1.564-16.064-3.02-23.025-2.797-3.004-5.791-3.7-9.852-4.062-5.535.16-10.71 2.713-14.765 6.437-5.802 6.818-7.802 14.8-7.383 23.625 1.01 5.498 2.775 10.393 6 15l-2 1-1.25-1.34c-1.814-1.721-3.623-2.913-5.75-4.222-9.948-6.557-17.831-14.998-25-24.438l-1.797-2.32c-19.579-26.495-26.87-60.303-22.637-92.809 1.266-8.004 2.79-16.583 6.434-23.871h2l1.25 2.188c3.099 4.98 7.23 7.996 12.75 9.812 13.092 1.89 22.654-2.814 32.938-10.5A165 165 0 0 0 446 631l1.75-1.54C487.275 592.315 499.444 530.57 511 480"/><path fill="#4e5cef" d="M499 529h1c.977 6.055.977 6.055 1 8l-2 2a101 101 0 0 0-2.187 5.938l-1.106 3.214c-.989 2.896-.989 2.896.293 5.848a249 249 0 0 1-4 6q-1.005 3-2 6c-1.49 3.037-3.07 6.014-4.66 9-1.361 3.048-1.85 5.718-2.34 9q-1.47 1.53-3 3a168 168 0 0 0-2 6c-1.928 4.53-4.39 7.81-7.695 11.387-1.527 1.695-1.527 1.695-2.305 4.613l-2 1 1 2-8 6c1.455-2.91 2.891-5.473 4.652-8.176C479.866 584.571 490.49 557.694 499 529"/><path fill="#5157e2" d="M511 480h2q1.046 4.37 2.063 8.75l.603 2.5.557 2.422.523 2.222c.278 2.307-.048 3.905-.746 6.106v-2l-2-1a129 129 0 0 1-2-7c-2.273 6.592-4.21 13.23-6.035 19.96C505 515 505 515 503 518c.731-7.995 2.703-15.71 4.563-23.5l.998-4.227Q509.774 485.135 511 480"/><path fill="#4e5bef" d="M535 561c2.723 4.084 4.56 8.466 6.563 12.938l1.248 2.748 1.193 2.654 1.088 2.418c.839 2.072 1.43 4.062 1.908 6.242-2-1.812-2-1.812-4-4v-3h-2l-2-9h-3z"/><path fill="#5ac7fa" d="M520 853h2q.757 2.654 1.5 5.313l.844 2.988C525 864 525 864 525 867h2l-1 3-4-2 1-3-1-3c-1-3-1-3 0-6h-2z"/><path fill="#5269ee" d="M393 633h2c.652 1.734.652 1.734 1 4-.996 2.14-.996 2.14-2.437 4.25l-1.434 2.14L391 645c-1.124-3.304-.896-5.05.438-8.25l.87-2.14z"/><path fill="#4f63f1" d="M458 618c0 4.39-2.128 5.77-5 9l-2-1zm-10 11v3l-4 2z"/><path fill="#0d0e1e" d="M477 536c1.26 3.779.48 5.034-.937 8.688l-1.153 3.011L474 550c-1.078-1.777-1.078-1.777-2-4 1.303-3.713 2.818-6.727 5-10"/><path fill="#4f59e7" d="m513 491 1 2h2l1 9-1-2-2-1c-.594-2.649-.742-5.292-1-8"/><path fill="#4d62e7" d="m631 632 2 1v3l-5 2c0-3 0-3 1.5-4.687z"/><path fill="#4b5cee" d="M551 596c2.724 2.353 3.814 4.625 5 8h-4z"/><path d="M498 353h6v1h-6zM596 338h1v5h-1zM530 353l4 1ZM482 353l4 1ZM570 353l3 1ZM458 353l3 1ZM592 352l1 2-2-1z"/><path fill="#fff" d="m609 611 2 1Z"/><path d="m586 353 2 1ZM583 353l2 1ZM578 353l2 1ZM554 353l2 1ZM551 353l2 1ZM543 353l2 1ZM535 353l2 1ZM527 353l2 1ZM523 353l2 1ZM519 353l2 1ZM511 353l2 1ZM506 353l2 1ZM495 353l2 1ZM479 353l2 1ZM455 353l2 1ZM447 353l2 1ZM442 353l2 1ZM434 353l2 1ZM426 353l2 1Z"/></svg>